<svg width="112" height="32" xmlns="http://www.w3.org/2000/svg"><g fill="#FFF" fill-rule="evenodd"><path d="M45 23.664v-4.676c0-2.043.712-3.783 2.137-5.22 1.424-1.439 3.13-2.158 5.12-2.158 1.236 0 2.318.29 3.245.867.927.578 1.632 1.31 2.116 2.197V.847c0-.242.094-.444.282-.605.189-.161.43-.242.726-.242.269 0 .497.08.685.242a.764.764 0 0 1 .283.605v29.147c0 .241-.094.45-.283.624a.97.97 0 0 1-.685.262.933.933 0 0 1-.685-.282c-.188-.188-.282-.39-.282-.604v-1.935c-.457.86-1.19 1.585-2.198 2.176a6.379 6.379 0 0 1-3.285.887c-1.908 0-3.581-.752-5.02-2.257C45.72 27.36 45 25.626 45 23.665zm1.975 0c0 1.452.538 2.748 1.613 3.89 1.075 1.143 2.325 1.714 3.75 1.714 1.37 0 2.593-.51 3.668-1.532 1.075-1.021 1.612-1.922 1.612-2.701v-6.047c0-1.64-.53-2.97-1.592-3.991-1.062-1.022-2.278-1.532-3.649-1.532-1.45 0-2.714.564-3.79 1.693-1.074 1.129-1.612 2.405-1.612 3.83v4.676zm17.174 0v-4.676c0-1.989.726-3.716 2.177-5.18 1.451-1.465 3.185-2.198 5.2-2.198 1.99 0 3.723.726 5.201 2.177 1.478 1.452 2.217 3.185 2.217 5.2v4.677c0 1.962-.745 3.696-2.237 5.2-1.492 1.506-3.218 2.258-5.18 2.258-1.962 0-3.682-.745-5.16-2.237-1.479-1.492-2.218-3.232-2.218-5.22zm1.976 0c0 1.452.53 2.748 1.592 3.89 1.062 1.143 2.331 1.714 3.81 1.714 1.478 0 2.754-.571 3.83-1.713 1.074-1.143 1.612-2.44 1.612-3.89v-4.677c0-1.425-.538-2.701-1.613-3.83s-2.351-1.693-3.83-1.693c-1.478 0-2.747.564-3.81 1.693-1.06 1.129-1.591 2.405-1.591 3.83v4.676zm16.69 0v-4.596c0-2.203.638-3.997 1.914-5.381 1.277-1.385 3.165-2.077 5.664-2.077 1.532 0 2.822.276 3.87.827 1.049.55 1.573 1.095 1.573 1.633a.955.955 0 0 1-.282.665c-.188.201-.403.302-.645.302-.135 0-.37-.128-.706-.383-.336-.255-.826-.517-1.471-.786-.645-.269-1.411-.403-2.298-.403-1.8 0-3.192.497-4.173 1.491-.98.995-1.471 2.366-1.471 4.112v4.596c0 1.774.484 3.151 1.451 4.132.968.981 2.379 1.472 4.233 1.472.94 0 1.747-.134 2.419-.403.672-.269 1.183-.538 1.532-.806.35-.27.605-.404.766-.404.242 0 .45.101.625.303a.993.993 0 0 1 .262.665c0 .564-.544 1.122-1.633 1.673-1.088.55-2.439.826-4.052.826-2.472 0-4.353-.685-5.643-2.056-1.29-1.37-1.936-3.171-1.936-5.402zm15.843 4.717c0-.215.074-.423.222-.625.147-.201.315-.302.504-.302.16-.027.376.067.645.282l.927.645c.322.215.82.43 1.491.645.672.215 1.425.323 2.258.323 1.505 0 2.62-.29 3.346-.867.726-.578 1.088-1.324 1.088-2.238 0-1.075-.342-1.921-1.028-2.54-.685-.618-1.518-1.068-2.499-1.35a92.474 92.474 0 0 1-2.963-.907 5.909 5.909 0 0 1-2.52-1.572c-.685-.726-1.028-1.707-1.028-2.943 0-1.398.518-2.634 1.552-3.709 1.035-1.075 2.56-1.613 4.576-1.613 1.263 0 2.439.195 3.528.585 1.088.39 1.632.8 1.632 1.23 0 .215-.094.443-.282.685-.188.242-.39.363-.605.363-.027 0-.497-.182-1.41-.545a7.582 7.582 0 0 0-2.823-.544c-1.451 0-2.533.363-3.245 1.089-.712.725-1.068 1.532-1.068 2.419 0 .913.342 1.626 1.028 2.136.685.51 1.525.9 2.52 1.17.994.268 1.988.57 2.983.906a5.542 5.542 0 0 1 2.52 1.734c.685.82 1.027 1.915 1.027 3.285 0 1.56-.55 2.782-1.653 3.669-1.102.887-2.647 1.33-4.636 1.33-1.72 0-3.164-.302-4.333-.907-1.17-.604-1.754-1.216-1.754-1.834zM29.94 29.464a1.666 1.666 0 0 1-.462-1.185c0-.464.161-.859.483-1.186.322-.326.735-.49 1.239-.49.448 0 .84.17 1.176.51.336.341.504.73.504 1.166 0 .435-.168.824-.504 1.164-.336.34-.728.511-1.176.511-.504 0-.924-.163-1.26-.49zm0-14.14a1.666 1.666 0 0 1-.462-1.185c0-.463.161-.858.483-1.185.322-.327.735-.49 1.239-.49.448 0 .84.17 1.176.51.336.341.504.73.504 1.165 0 .436-.168.824-.504 1.165-.336.34-.728.51-1.176.51-.504 0-.924-.163-1.26-.49z"/><path d="M3.692.964C3.265.711 2.75.581 2.145.581 1.513.581.998.711.6.964c-.398.256-.6.59-.6.993v27.784c0 .352.207.672.621.97.412.297.919.445 1.524.445.578 0 1.085-.148 1.526-.446.438-.294.661-.617.661-.97V1.96c0-.407-.212-.735-.64-.996M7.262 15.544c-.26.237-.371.597-.323 1.09.045.487.276.95.685 1.389.41.44.87.717 1.396.834.517.114.91.052 1.17-.183l2.294-1.394v12.46c0 .353.199.673.602.97.393.298.898.446 1.503.446.605 0 1.128-.148 1.566-.446.44-.297.66-.617.66-.97V12.988c0-.406-.214-.735-.639-.987-.425-.258-.953-.384-1.587-.384-.632 0-1.14.126-1.527.384l-5.8 3.544" fill-rule="nonzero"/></g></svg>